<svg width="12" height="12" viewBox="0 0 12 12" fill="none" xmlns="http://www.w3.org/2000/svg">
<path d="M6 12C5.3 12 4.64063 11.8875 4.02188 11.6625C3.40313 11.4375 2.8375 11.125 2.325 10.725L1.275 11.775C1.125 11.925 0.95 12 0.75 12C0.55 12 0.375 11.925 0.225 11.775C0.0750001 11.625 0 11.45 0 11.25C0 11.05 0.0750001 10.875 0.225 10.725L1.275 9.675C0.875 9.1625 0.5625 8.59687 0.3375 7.97812C0.1125 7.35937 0 6.7 0 6C0 4.275 0.596875 2.84375 1.79063 1.70625C2.98438 0.56875 4.3875 0 6 0H10.5C10.9125 0 11.2656 0.146875 11.5594 0.440625C11.8531 0.734375 12 1.0875 12 1.5V6C12 6.775 11.8531 7.525 11.5594 8.25C11.2656 8.975 10.825 9.6375 10.2375 10.2375C9.6375 10.825 8.975 11.2656 8.25 11.5594C7.525 11.8531 6.775 12 6 12ZM6.225 4.725L2.86875 8.08125C2.71875 8.23125 2.64688 8.40625 2.65313 8.60625C2.65938 8.80625 2.73125 8.98125 2.86875 9.13125C3.01875 9.28125 3.19375 9.35938 3.39375 9.36563C3.59375 9.37188 3.76875 9.3 3.91875 9.15L7.275 5.775C7.425 5.625 7.5 5.45 7.5 5.25C7.5 5.05 7.425 4.875 7.275 4.725C7.125 4.575 6.95 4.5 6.75 4.5C6.55 4.5 6.375 4.575 6.225 4.725Z" fill="black"/>
</svg>
